# xmcd CD database file
#
# Track frame offsets:
#	150
#	16497
#	32560
#	43112
#	58859
#	74555
#	86404
#	100467
#	117404
#	131237
#	147139
#	162218
#
# Disc length: 2355 seconds
#
# Revision: 2
# Processed by: cddbd v1.4PL0 Copyright (c) Steve Scherf et al.
# Submitted via: CDex 1.50Beta6
#
DISCID=ad09310c
DTITLE=George Strait - The Best Of George Strait (The Millennium Collection)
DYEAR=2002
DGENRE=Country
TTITLE0=Famous Last Words
TTITLE1=Baby Blue
TTITLE2=If You Ain't Lovin' (You Ain't Livin')
TTITLE3=Baby's Gotten Good At Goodbye
TTITLE4=What's Going On In Your World
TTITLE5=Ace In The Hole
TTITLE6=Love Without End,Amen
TTITLE7=I've Come To Expect It From You
TTITLE8=Easy Come, Easy Go
TTITLE9=I Cross My Heart
TTITLE10=All My Ex's Live In Texas
TTITLE11=You Look So Good In Love
EXTD=YEAR: 2002
EXTT0=
EXTT1=
EXTT2=
EXTT3=
EXTT4=
EXTT5=
EXTT6=
EXTT7=
EXTT8=
EXTT9=
EXTT10=
EXTT11=
PLAYORDER=
